# 3ds Max Wavefront OBJ Exporter v0.97b - (c)2007 guruware
# File Created: 16.01.2019 17:29:15

#
# object Text002
#

v  -10.0932 0.0000 -43.7931
v  -9.6190 0.0000 -43.8741
v  -9.6190 3.7000 -43.8741
v  -10.0932 3.7000 -43.7931
v  -9.1891 0.0000 -43.9427
v  -9.1891 3.7000 -43.9427
v  -8.8034 0.0000 -43.9989
v  -8.8034 3.7000 -43.9989
v  -8.4621 0.0000 -44.0425
v  -8.4621 3.7000 -44.0425
v  -8.1650 0.0000 -44.0737
v  -8.1650 3.7000 -44.0737
v  -7.9123 0.0000 -44.0924
v  -7.9123 3.7000 -44.0924
v  -7.7038 0.0000 -44.0986
v  -7.7038 3.7000 -44.0986
v  -7.4185 0.0000 -44.0875
v  -7.4185 3.7000 -44.0875
v  -7.1477 0.0000 -44.0542
v  -7.1477 3.7000 -44.0542
v  -6.8914 0.0000 -43.9985
v  -6.8914 3.7000 -43.9985
v  -6.6496 0.0000 -43.9207
v  -6.6496 3.7000 -43.9207
v  -6.4223 0.0000 -43.8206
v  -6.4223 3.7000 -43.8206
v  -6.2094 0.0000 -43.6982
v  -6.2094 3.7000 -43.6982
v  -6.0110 0.0000 -43.5536
v  -6.0110 3.7000 -43.5536
v  -5.8757 0.0000 -43.4319
v  -5.8757 3.7000 -43.4319
v  -5.7612 0.0000 -43.3017
v  -5.7612 3.7000 -43.3017
v  -5.6675 0.0000 -43.1632
v  -5.6675 3.7000 -43.1632
v  -5.5946 0.0000 -43.0162
v  -5.5946 3.7000 -43.0162
v  -5.5426 0.0000 -42.8609
v  -5.5426 3.7000 -42.8609
v  -5.5113 0.0000 -42.6971
v  -5.5113 3.7000 -42.6971
v  -5.5009 0.0000 -42.5250
v  -5.5009 3.7000 -42.5250
v  -5.5231 0.0000 -42.0313
v  -5.5231 3.7000 -42.0313
v  -5.5896 0.0000 -41.4509
v  -5.5896 3.7000 -41.4509
v  -5.7005 0.0000 -40.7838
v  -5.7005 3.7000 -40.7838
v  -5.8557 0.0000 -40.0299
v  -5.8557 3.7000 -40.0299
v  -6.0552 0.0000 -39.1894
v  -6.0552 3.7000 -39.1894
v  -6.2991 0.0000 -38.2621
v  -6.2991 3.7000 -38.2621
v  -6.5873 0.0000 -37.2481
v  -6.5873 3.7000 -37.2481
v  -12.6342 0.0000 -16.2271
v  -12.6342 3.7000 -16.2271
v  -7.4536 0.0000 -16.2271
v  -7.4536 3.7000 -16.2271
v  -6.3551 0.0000 -20.5174
v  -6.3551 3.7000 -20.5174
v  -6.2721 0.0000 -20.8039
v  -6.2721 3.7000 -20.8039
v  -6.1391 0.0000 -21.2167
v  -6.1391 3.7000 -21.2167
v  -5.9561 0.0000 -21.7556
v  -5.9561 3.7000 -21.7556
v  -5.7232 0.0000 -22.4208
v  -5.7232 3.7000 -22.4208
v  -5.4404 0.0000 -23.2122
v  -5.4404 3.7000 -23.2122
v  -5.1076 0.0000 -24.1297
v  -5.1076 3.7000 -24.1297
v  -4.7249 0.0000 -25.1735
v  -4.7249 3.7000 -25.1735
v  -4.4257 0.0000 -25.9675
v  -4.4257 3.7000 -25.9675
v  -4.1099 0.0000 -26.7378
v  -4.1099 3.7000 -26.7378
v  -3.7773 0.0000 -27.4847
v  -3.7773 3.7000 -27.4847
v  -3.4281 0.0000 -28.2079
v  -3.4281 3.7000 -28.2079
v  -3.0621 0.0000 -28.9076
v  -3.0621 3.7000 -28.9076
v  -2.6795 0.0000 -29.5837
v  -2.6795 3.7000 -29.5837
v  -2.2801 0.0000 -30.2362
v  -2.2801 3.7000 -30.2362
v  -1.3490 0.0000 -31.7109
v  -1.3490 3.7000 -31.7109
v  -0.4373 0.0000 -33.1051
v  -0.4373 3.7000 -33.1051
v  0.4551 0.0000 -34.4188
v  0.4551 3.7000 -34.4188
v  1.3281 0.0000 -35.6520
v  1.3281 3.7000 -35.6520
v  2.1816 0.0000 -36.8047
v  2.1816 3.7000 -36.8047
v  3.0158 0.0000 -37.8769
v  3.0158 3.7000 -37.8769
v  3.8305 0.0000 -38.8687
v  3.8305 3.7000 -38.8687
v  4.3261 0.0000 -39.4555
v  4.3261 3.7000 -39.4555
v  4.7842 0.0000 -39.9729
v  4.7842 3.7000 -39.9729
v  5.2049 0.0000 -40.4209
v  5.2049 3.7000 -40.4209
v  5.5882 0.0000 -40.7996
v  5.5882 3.7000 -40.7996
v  5.9340 0.0000 -41.1088
v  5.9340 3.7000 -41.1088
v  6.2425 0.0000 -41.3487
v  6.2425 3.7000 -41.3487
v  6.5135 0.0000 -41.5191
v  6.5135 3.7000 -41.5191
v  6.6603 0.0000 -41.5913
v  6.6603 3.7000 -41.5913
v  6.8099 0.0000 -41.6523
v  6.8099 3.7000 -41.6523
v  6.9623 0.0000 -41.7023
v  6.9623 3.7000 -41.7023
v  7.1175 0.0000 -41.7411
v  7.1175 3.7000 -41.7411
v  7.2755 0.0000 -41.7689
v  7.2755 3.7000 -41.7689
v  7.4363 0.0000 -41.7855
v  7.4363 3.7000 -41.7855
v  7.5999 0.0000 -41.7911
v  7.5999 3.7000 -41.7911
v  7.7044 0.0000 -41.7856
v  7.7044 3.7000 -41.7856
v  7.8048 0.0000 -41.7691
v  7.8048 3.7000 -41.7691
v  7.9010 0.0000 -41.7418
v  7.9010 3.7000 -41.7418
v  7.9932 0.0000 -41.7034
v  7.9932 3.7000 -41.7034
v  8.0812 0.0000 -41.6542
v  8.0812 3.7000 -41.6542
v  8.1650 0.0000 -41.5939
v  8.1650 3.7000 -41.5939
v  8.2448 0.0000 -41.5228
v  8.2448 3.7000 -41.5228
v  8.3094 0.0000 -41.4561
v  8.3094 3.7000 -41.4561
v  8.3670 0.0000 -41.3717
v  8.3670 3.7000 -41.3717
v  8.4176 0.0000 -41.2695
v  8.4176 3.7000 -41.2695
v  8.4613 0.0000 -41.1495
v  8.4613 3.7000 -41.1495
v  8.4979 0.0000 -41.0118
v  8.4979 3.7000 -41.0118
v  8.5277 0.0000 -40.8563
v  8.5277 3.7000 -40.8563
v  8.5504 0.0000 -40.6830
v  8.5504 3.7000 -40.6830
v  8.5979 0.0000 -40.3963
v  8.5979 3.7000 -40.3963
v  8.6627 0.0000 -40.1315
v  8.6627 3.7000 -40.1315
v  8.7448 0.0000 -39.8888
v  8.7448 3.7000 -39.8888
v  8.8442 0.0000 -39.6680
v  8.8442 3.7000 -39.6680
v  8.9610 0.0000 -39.4692
v  8.9610 3.7000 -39.4692
v  9.0950 0.0000 -39.2924
v  9.0950 3.7000 -39.2924
v  9.2464 0.0000 -39.1376
v  9.2464 3.7000 -39.1376
v  9.4109 0.0000 -39.0040
v  9.4109 3.7000 -39.0040
v  9.5844 0.0000 -38.8909
v  9.5844 3.7000 -38.8909
v  9.7670 0.0000 -38.7985
v  9.7670 3.7000 -38.7985
v  9.9585 0.0000 -38.7265
v  9.9585 3.7000 -38.7265
v  10.1591 0.0000 -38.6752
v  10.1591 3.7000 -38.6752
v  10.3687 0.0000 -38.6443
v  10.3687 3.7000 -38.6443
v  10.5873 0.0000 -38.6341
v  10.5873 3.7000 -38.6341
v  11.0093 0.0000 -38.6650
v  11.0093 3.7000 -38.6650
v  11.4022 0.0000 -38.7577
v  11.4022 3.7000 -38.7577
v  11.7659 0.0000 -38.9123
v  11.7659 3.7000 -38.9123
v  12.1006 0.0000 -39.1287
v  12.1006 3.7000 -39.1287
v  12.4061 0.0000 -39.4069
v  12.4061 3.7000 -39.4069
v  12.6825 0.0000 -39.7469
v  12.6825 3.7000 -39.7469
v  12.9298 0.0000 -40.1488
v  12.9298 3.7000 -40.1488
v  13.2362 0.0000 -40.7301
v  13.2362 3.7000 -40.7301
v  13.4955 0.0000 -41.3196
v  13.4955 3.7000 -41.3196
v  13.7076 0.0000 -41.9174
v  13.7076 3.7000 -41.9174
v  13.8726 0.0000 -42.5234
v  13.8726 3.7000 -42.5234
v  13.9905 0.0000 -43.1377
v  13.9905 3.7000 -43.1377
v  14.0612 0.0000 -43.7602
v  14.0612 3.7000 -43.7602
v  14.0848 0.0000 -44.3910
v  14.0848 3.7000 -44.3910
v  14.0715 0.0000 -44.7351
v  14.0715 3.7000 -44.7351
v  14.0317 0.0000 -45.0551
v  14.0317 3.7000 -45.0551
v  13.9653 0.0000 -45.3510
v  13.9653 3.7000 -45.3510
v  13.8724 0.0000 -45.6228
v  13.8724 3.7000 -45.6228
v  13.7530 0.0000 -45.8705
v  13.7530 3.7000 -45.8705
v  13.6070 0.0000 -46.0942
v  13.6070 3.7000 -46.0942
v  13.4345 0.0000 -46.2937
v  13.4345 3.7000 -46.2937
v  13.2389 0.0000 -46.4679
v  13.2389 3.7000 -46.4679
v  13.0238 0.0000 -46.6152
v  13.0238 3.7000 -46.6152
v  12.7892 0.0000 -46.7357
v  12.7892 3.7000 -46.7357
v  12.5351 0.0000 -46.8295
v  12.5351 3.7000 -46.8295
v  12.2615 0.0000 -46.8965
v  12.2615 3.7000 -46.8965
v  11.9683 0.0000 -46.9367
v  11.9683 3.7000 -46.9367
v  11.6557 0.0000 -46.9501
v  11.6557 3.7000 -46.9501
v  11.1359 0.0000 -46.9030
v  11.1359 3.7000 -46.9030
v  10.5743 0.0000 -46.7619
v  10.5743 3.7000 -46.7619
v  9.9708 0.0000 -46.5266
v  9.9708 3.7000 -46.5266
v  9.3254 0.0000 -46.1973
v  9.3254 3.7000 -46.1973
v  8.6381 0.0000 -45.7739
v  8.6381 3.7000 -45.7739
v  7.9090 0.0000 -45.2564
v  7.9090 3.7000 -45.2564
v  7.1379 0.0000 -44.6449
v  7.1379 3.7000 -44.6449
v  5.7175 0.0000 -43.3674
v  5.7175 3.7000 -43.3674
v  4.2524 0.0000 -41.8407
v  4.2524 3.7000 -41.8407
v  2.7425 0.0000 -40.0650
v  2.7425 3.7000 -40.0650
v  1.1879 0.0000 -38.0402
v  1.1879 3.7000 -38.0402
v  -0.4114 0.0000 -35.7662
v  -0.4114 3.7000 -35.7662
v  -2.0555 0.0000 -33.2431
v  -2.0555 3.7000 -33.2431
v  -3.7443 0.0000 -30.4708
v  -3.7443 3.7000 -30.4708
v  0.9827 0.0000 -46.9501
v  0.9827 3.7000 -46.9501
v  -10.5913 0.0000 -45.0251
v  -10.5913 3.7000 -45.0251
# 278 vertices

vn 0.1685 0.0000 0.9857
vn 0.1630 0.0000 0.9866
vn 0.1508 0.0000 0.9886
vn 0.1355 0.0000 0.9908
vn 0.1156 0.0000 0.9933
vn 0.0891 0.0000 0.9960
vn 0.0519 0.0000 0.9987
vn -0.0045 0.0000 1.0000
vn -0.0807 0.0000 0.9967
vn -0.1673 0.0000 0.9859
vn -0.2596 0.0000 0.9657
vn -0.3552 0.0000 0.9348
vn -0.4513 0.0000 0.8924
vn -0.5445 0.0000 0.8388
vn -0.6298 0.0000 0.7768
vn -0.7110 0.0000 0.7032
vn -0.7912 0.0000 0.6116
vn -0.8641 0.0000 0.5034
vn -0.9242 0.0000 0.3819
vn -0.9674 0.0000 0.2531
vn -0.9923 0.0000 0.1241
vn -1.0000 0.0000 0.0078
vn -0.9968 0.0000 -0.0794
vn -0.9903 0.0000 -0.1389
vn -0.9831 0.0000 -0.1828
vn -0.9763 0.0000 -0.2163
vn -0.9701 0.0000 -0.2427
vn -0.9645 0.0000 -0.2639
vn -0.9619 0.0000 -0.2734
vn -0.9610 0.0000 -0.2764
vn 0.0000 0.0000 1.0000
vn 0.9688 0.0000 0.2480
vn 0.9605 0.0000 0.2784
vn 0.9562 0.0000 0.2926
vn 0.9494 0.0000 0.3141
vn 0.9454 0.0000 0.3260
vn 0.9427 0.0000 0.3335
vn 0.9409 0.0000 0.3387
vn 0.9395 0.0000 0.3426
vn 0.9373 0.0000 0.3484
vn 0.9306 0.0000 0.3660
vn 0.9195 0.0000 0.3931
vn 0.9071 0.0000 0.4209
vn 0.8934 0.0000 0.4492
vn 0.8783 0.0000 0.4781
vn 0.8617 0.0000 0.5073
vn 0.8493 0.0000 0.5280
vn 0.8413 0.0000 0.5406
vn 0.8321 0.0000 0.5546
vn 0.8217 0.0000 0.5699
vn 0.8100 0.0000 0.5865
vn 0.7965 0.0000 0.6046
vn 0.7811 0.0000 0.6245
vn 0.7684 0.0000 0.6400
vn 0.7564 0.0000 0.6541
vn 0.7389 0.0000 0.6738
vn 0.7160 0.0000 0.6981
vn 0.6849 0.0000 0.7287
vn 0.6406 0.0000 0.7679
vn 0.5739 0.0000 0.8189
vn 0.4874 0.0000 0.8732
vn 0.4096 0.0000 0.9122
vn 0.3448 0.0000 0.9387
vn 0.2773 0.0000 0.9608
vn 0.2080 0.0000 0.9781
vn 0.1380 0.0000 0.9904
vn 0.0685 0.0000 0.9977
vn -0.0092 0.0000 1.0000
vn -0.1071 0.0000 0.9943
vn -0.2179 0.0000 0.9760
vn -0.3294 0.0000 0.9442
vn -0.4371 0.0000 0.8994
vn -0.5368 0.0000 0.8437
vn -0.6255 0.0000 0.7802
vn -0.6659 0.0000 0.7460
vn -0.7181 0.0000 0.6959
vn -0.7749 0.0000 0.6321
vn -0.8631 0.0000 0.5050
vn -0.9193 0.0000 0.3936
vn -0.9540 0.0000 0.2999
vn -0.9749 0.0000 0.2226
vn -0.9873 0.0000 0.1589
vn -0.9915 0.0000 0.1301
vn -0.9866 0.0000 0.1634
vn -0.9796 0.0000 0.2008
vn -0.9602 0.0000 0.2794
vn -0.9306 0.0000 0.3660
vn -0.8883 0.0000 0.4592
vn -0.8310 0.0000 0.5562
vn -0.7575 0.0000 0.6528
vn -0.6738 0.0000 0.7389
vn -0.5889 0.0000 0.8082
vn -0.4996 0.0000 0.8663
vn -0.4023 0.0000 0.9155
vn -0.3003 0.0000 0.9539
vn -0.1971 0.0000 0.9804
vn -0.0964 0.0000 0.9953
vn 0.0131 0.0000 0.9999
vn 0.1519 0.0000 0.9884
vn 0.3115 0.0000 0.9502
vn 0.4688 0.0000 0.8833
vn 0.6102 0.0000 0.7922
vn 0.7267 0.0000 0.6870
vn 0.8156 0.0000 0.5786
vn 0.8517 0.0000 0.5241
vn 0.8846 0.0000 0.4663
vn 0.9006 0.0000 0.4347
vn 0.9295 0.0000 0.3688
vn 0.9543 0.0000 0.2988
vn 0.9742 0.0000 0.2257
vn 0.9886 0.0000 0.1508
vn 0.9972 0.0000 0.0752
vn 1.0000 0.0000 -0.0006
vn 0.9967 0.0000 -0.0811
vn 0.9852 0.0000 -0.1713
vn 0.9624 0.0000 -0.2715
vn 0.9252 0.0000 -0.3795
vn 0.8709 0.0000 -0.4915
vn 0.7987 0.0000 -0.6017
vn 0.7123 0.0000 -0.7019
vn 0.6163 0.0000 -0.7875
vn 0.5121 0.0000 -0.8589
vn 0.4023 0.0000 -0.9155
vn 0.2924 0.0000 -0.9563
vn 0.1870 0.0000 -0.9824
vn 0.0894 0.0000 -0.9960
vn -0.0237 0.0000 -0.9997
vn -0.1674 0.0000 -0.9859
vn -0.3040 0.0000 -0.9527
vn -0.4093 0.0000 -0.9124
vn -0.4899 0.0000 -0.8718
vn -0.5519 0.0000 -0.8339
vn -0.6003 0.0000 -0.7998
vn -0.6454 0.0000 -0.7639
vn -0.6956 0.0000 -0.7185
vn -0.7420 0.0000 -0.6704
vn -0.7778 0.0000 -0.6286
vn -0.8057 0.0000 -0.5923
vn -0.8280 0.0000 -0.5607
vn -0.8460 0.0000 -0.5332
vn -0.8540 0.0000 -0.5203
vn 0.9612 0.0000 0.2757
vn -0.1641 0.0000 -0.9864
vn -0.9271 0.0000 0.3748
vn 0.0000 -1.0000 -0.0000
vn 0.0000 1.0000 -0.0000
# 146 vertex normals

g Text002
s 1
f 1//1 2//2 3//2 4//1 
s 3
f 2//2 5//3 6//3 3//2 
s 2
f 5//3 7//4 8//4 6//3 
f 7//4 9//5 10//5 8//4 
f 9//5 11//6 12//6 10//5 
f 11//6 13//7 14//7 12//6 
f 13//7 15//8 16//8 14//7 
f 15//8 17//9 18//9 16//8 
f 17//9 19//10 20//10 18//9 
f 19//10 21//11 22//11 20//10 
f 21//11 23//12 24//12 22//11 
f 23//12 25//13 26//13 24//12 
f 25//13 27//14 28//14 26//13 
f 27//14 29//15 30//15 28//14 
f 29//15 31//16 32//16 30//15 
f 31//16 33//17 34//17 32//16 
f 33//17 35//18 36//18 34//17 
f 35//18 37//19 38//19 36//18 
f 37//19 39//20 40//20 38//19 
f 39//20 41//21 42//21 40//20 
f 41//21 43//22 44//22 42//21 
f 43//22 45//23 46//23 44//22 
f 45//23 47//24 48//24 46//23 
f 47//24 49//25 50//25 48//24 
f 49//25 51//26 52//26 50//25 
f 51//26 53//27 54//27 52//26 
f 53//27 55//28 56//28 54//27 
f 55//28 57//29 58//29 56//28 
s 4
f 57//30 59//30 60//30 58//30 
s 2
f 59//31 61//31 62//31 60//31 
s 4
f 61//32 63//32 64//32 62//32 
s 2
f 63//33 65//34 66//34 64//33 
f 65//34 67//35 68//35 66//34 
f 67//35 69//36 70//36 68//35 
f 69//36 71//37 72//37 70//36 
f 71//37 73//38 74//38 72//37 
f 73//38 75//39 76//39 74//38 
f 75//39 77//40 78//40 76//39 
f 77//40 79//41 80//41 78//40 
f 79//41 81//42 82//42 80//41 
f 81//42 83//43 84//43 82//42 
f 83//43 85//44 86//44 84//43 
f 85//44 87//45 88//45 86//44 
f 87//45 89//46 90//46 88//45 
f 89//46 91//47 92//47 90//46 
f 91//47 93//48 94//48 92//47 
f 93//48 95//49 96//49 94//48 
f 95//49 97//50 98//50 96//49 
f 97//50 99//51 100//51 98//50 
f 99//51 101//52 102//52 100//51 
f 101//52 103//53 104//53 102//52 
f 103//53 105//54 106//54 104//53 
f 105//54 107//55 108//55 106//54 
f 107//55 109//56 110//56 108//55 
f 109//56 111//57 112//57 110//56 
f 111//57 113//58 114//58 112//57 
f 113//58 115//59 116//59 114//58 
f 115//59 117//60 118//60 116//59 
f 117//60 119//61 120//61 118//60 
f 119//61 121//62 122//62 120//61 
f 121//62 123//63 124//63 122//62 
f 123//63 125//64 126//64 124//63 
f 125//64 127//65 128//65 126//64 
f 127//65 129//66 130//66 128//65 
f 129//66 131//67 132//67 130//66 
f 131//67 133//68 134//68 132//67 
f 133//68 135//69 136//69 134//68 
f 135//69 137//70 138//70 136//69 
f 137//70 139//71 140//71 138//70 
f 139//71 141//72 142//72 140//71 
f 141//72 143//73 144//73 142//72 
f 143//73 145//74 146//74 144//73 
f 145//74 147//75 148//75 146//74 
s 4
f 147//76 149//77 150//77 148//76 
f 149//77 151//78 152//78 150//77 
f 151//78 153//79 154//79 152//78 
f 153//79 155//80 156//80 154//79 
f 155//80 157//81 158//81 156//80 
f 157//81 159//82 160//82 158//81 
f 159//82 161//83 162//83 160//82 
s 2
f 161//84 163//85 164//85 162//84 
f 163//85 165//86 166//86 164//85 
f 165//86 167//87 168//87 166//86 
f 167//87 169//88 170//88 168//87 
f 169//88 171//89 172//89 170//88 
f 171//89 173//90 174//90 172//89 
f 173//90 175//91 176//91 174//90 
f 175//91 177//92 178//92 176//91 
f 177//92 179//93 180//93 178//92 
f 179//93 181//94 182//94 180//93 
f 181//94 183//95 184//95 182//94 
f 183//95 185//96 186//96 184//95 
f 185//96 187//97 188//97 186//96 
f 187//97 189//98 190//98 188//97 
f 189//98 191//99 192//99 190//98 
f 191//99 193//100 194//100 192//99 
f 193//100 195//101 196//101 194//100 
f 195//101 197//102 198//102 196//101 
f 197//102 199//103 200//103 198//102 
f 199//103 201//104 202//104 200//103 
f 201//104 203//105 204//105 202//104 
s 4
f 203//106 205//107 206//107 204//106 
f 205//107 207//108 208//108 206//107 
f 207//108 209//109 210//109 208//108 
f 209//109 211//110 212//110 210//109 
f 211//110 213//111 214//111 212//110 
f 213//111 215//112 216//112 214//111 
f 215//112 217//113 218//113 216//112 
f 217//113 219//114 220//114 218//113 
f 219//114 221//115 222//115 220//114 
f 221//115 223//116 224//116 222//115 
f 223//116 225//117 226//117 224//116 
f 225//117 227//118 228//118 226//117 
f 227//118 229//119 230//119 228//118 
f 229//119 231//120 232//120 230//119 
f 231//120 233//121 234//121 232//120 
f 233//121 235//122 236//122 234//121 
f 235//122 237//123 238//123 236//122 
f 237//123 239//124 240//124 238//123 
f 239//124 241//125 242//125 240//124 
f 241//125 243//126 244//126 242//125 
f 243//126 245//127 246//127 244//126 
f 245//127 247//128 248//128 246//127 
f 247//128 249//129 250//129 248//128 
f 249//129 251//130 252//130 250//129 
f 251//130 253//131 254//131 252//130 
f 253//131 255//132 256//132 254//131 
f 255//132 257//133 258//133 256//132 
f 257//133 259//134 260//134 258//133 
f 259//134 261//135 262//135 260//134 
f 261//135 263//136 264//136 262//135 
f 263//136 265//137 266//137 264//136 
f 265//137 267//138 268//138 266//137 
f 267//138 269//139 270//139 268//138 
f 269//139 271//140 272//140 270//139 
f 271//140 273//141 274//141 272//140 
s 2
f 273//142 275//142 276//142 274//142 
s 4
f 275//143 277//143 278//143 276//143 
s 2
f 277//144 1//144 4//144 278//144 
s 16
f 57//145 63//145 61//145 59//145 
f 57//145 67//145 65//145 63//145 
f 57//145 71//145 69//145 67//145 
f 57//145 75//145 73//145 71//145 
f 57//145 79//145 77//145 75//145 
f 57//145 83//145 81//145 79//145 
f 57//145 273//145 85//145 83//145 
f 275//145 2//145 1//145 277//145 
f 275//145 7//145 5//145 2//145 
f 275//145 11//145 9//145 7//145 
f 275//145 15//145 13//145 11//145 
f 275//145 19//145 17//145 15//145 
f 275//145 23//145 21//145 19//145 
f 275//145 27//145 25//145 23//145 
f 275//145 31//145 29//145 27//145 
f 275//145 35//145 33//145 31//145 
f 275//145 39//145 37//145 35//145 
f 275//145 273//145 41//145 39//145 
f 273//145 45//145 43//145 41//145 
f 273//145 49//145 47//145 45//145 
f 273//145 53//145 51//145 49//145 
f 273//145 57//145 55//145 53//145 
f 273//145 89//145 87//145 85//145 
f 273//145 271//145 91//145 89//145 
f 271//145 95//145 93//145 91//145 
f 269//145 97//145 95//145 271//145 
f 269//145 267//145 99//145 97//145 
f 267//145 103//145 101//145 99//145 
f 265//145 105//145 103//145 267//145 
f 265//145 263//145 107//145 105//145 
f 263//145 111//145 109//145 107//145 
f 263//145 261//145 113//145 111//145 
f 261//145 117//145 115//145 113//145 
f 261//145 121//145 119//145 117//145 
f 261//145 259//145 123//145 121//145 
f 259//145 127//145 125//145 123//145 
f 259//145 131//145 129//145 127//145 
f 259//145 135//145 133//145 131//145 
f 259//145 257//145 137//145 135//145 
f 257//145 141//145 139//145 137//145 
f 257//145 255//145 143//145 141//145 
f 255//145 147//145 145//145 143//145 
f 253//145 149//145 147//145 255//145 
f 251//145 151//145 149//145 253//145 
f 249//145 247//145 151//145 251//145 
f 245//145 243//145 151//145 247//145 
f 241//145 239//145 151//145 243//145 
f 237//145 235//145 151//145 239//145 
f 233//145 231//145 151//145 235//145 
f 229//145 227//145 151//145 231//145 
f 225//145 223//145 151//145 227//145 
f 221//145 219//145 151//145 223//145 
f 217//145 215//145 151//145 219//145 
f 213//145 211//145 151//145 215//145 
f 209//145 207//145 151//145 211//145 
f 207//145 205//145 153//145 151//145 
f 205//145 203//145 155//145 153//145 
f 203//145 159//145 157//145 155//145 
f 201//145 199//145 159//145 203//145 
f 199//145 197//145 161//145 159//145 
f 195//145 163//145 161//145 197//145 
f 193//145 191//145 163//145 195//145 
f 189//145 165//145 163//145 191//145 
f 189//145 169//145 167//145 165//145 
f 187//145 185//145 169//145 189//145 
f 185//145 183//145 171//145 169//145 
f 181//145 179//145 171//145 183//145 
f 177//145 173//145 171//145 179//145 
f 177//145 175//145 173//145 
f 58//146 60//146 62//146 64//146 
f 58//146 64//146 66//146 68//146 
f 58//146 68//146 70//146 72//146 
f 58//146 72//146 74//146 76//146 
f 58//146 76//146 78//146 80//146 
f 58//146 80//146 82//146 84//146 
f 58//146 84//146 86//146 274//146 
f 276//146 278//146 4//146 3//146 
f 276//146 3//146 6//146 8//146 
f 276//146 8//146 10//146 12//146 
f 276//146 12//146 14//146 16//146 
f 276//146 16//146 18//146 20//146 
f 276//146 20//146 22//146 24//146 
f 276//146 24//146 26//146 28//146 
f 276//146 28//146 30//146 32//146 
f 276//146 32//146 34//146 36//146 
f 276//146 36//146 38//146 40//146 
f 276//146 40//146 42//146 274//146 
f 274//146 42//146 44//146 46//146 
f 274//146 46//146 48//146 50//146 
f 274//146 50//146 52//146 54//146 
f 274//146 54//146 56//146 58//146 
f 274//146 86//146 88//146 90//146 
f 274//146 90//146 92//146 272//146 
f 272//146 92//146 94//146 96//146 
f 270//146 272//146 96//146 98//146 
f 270//146 98//146 100//146 268//146 
f 268//146 100//146 102//146 104//146 
f 266//146 268//146 104//146 106//146 
f 266//146 106//146 108//146 264//146 
f 264//146 108//146 110//146 112//146 
f 264//146 112//146 114//146 262//146 
f 262//146 114//146 116//146 118//146 
f 262//146 118//146 120//146 122//146 
f 262//146 122//146 124//146 260//146 
f 260//146 124//146 126//146 128//146 
f 260//146 128//146 130//146 132//146 
f 260//146 132//146 134//146 136//146 
f 260//146 136//146 138//146 258//146 
f 258//146 138//146 140//146 142//146 
f 258//146 142//146 144//146 256//146 
f 256//146 144//146 146//146 148//146 
f 254//146 256//146 148//146 150//146 
f 252//146 254//146 150//146 152//146 
f 250//146 252//146 152//146 248//146 
f 246//146 248//146 152//146 244//146 
f 242//146 244//146 152//146 240//146 
f 238//146 240//146 152//146 236//146 
f 234//146 236//146 152//146 232//146 
f 230//146 232//146 152//146 228//146 
f 226//146 228//146 152//146 224//146 
f 222//146 224//146 152//146 220//146 
f 218//146 220//146 152//146 216//146 
f 214//146 216//146 152//146 212//146 
f 210//146 212//146 152//146 208//146 
f 208//146 152//146 154//146 206//146 
f 206//146 154//146 156//146 204//146 
f 204//146 156//146 158//146 160//146 
f 202//146 204//146 160//146 200//146 
f 200//146 160//146 162//146 198//146 
f 196//146 198//146 162//146 164//146 
f 194//146 196//146 164//146 192//146 
f 190//146 192//146 164//146 166//146 
f 190//146 166//146 168//146 170//146 
f 188//146 190//146 170//146 186//146 
f 186//146 170//146 172//146 184//146 
f 182//146 184//146 172//146 180//146 
f 178//146 180//146 172//146 174//146 
f 178//146 174//146 176//146 
# 275 polygons - 2 triangles

